<?xml version="1.0" encoding="UTF-8"?>
<!DOCTYPE svg PUBLIC "-//W3C//DTD SVG 1.1//EN" "http://www.w3.org/Graphics/SVG/1.1/DTD/svg11.dtd">
<!-- Creator: CorelDRAW -->
<svg xmlns="http://www.w3.org/2000/svg" xml:space="preserve" width="210mm" height="297mm" version="1.1" style="shape-rendering:geometricPrecision; text-rendering:geometricPrecision; image-rendering:optimizeQuality; fill-rule:evenodd; clip-rule:evenodd"
viewBox="0 0 21000 29700"
 xmlns:xlink="http://www.w3.org/1999/xlink"
 xmlns:xodm="http://www.corel.com/coreldraw/odm/2003"
 enable-background="new 0 0 48 48">
 <defs>
  <style type="text/css">
   <![CDATA[
    .str0 {stroke:#FEFEFE;stroke-width:20;stroke-miterlimit:22.9256}
    .fil0 {fill:#FEFEFE;fill-rule:nonzero}
   ]]>
  </style>
 </defs>
 <g id="Camada_x0020_1">
  <metadata id="CorelCorpID_0Corel-Layer"/>
  <g id="_1657688093920">
   <path class="fil0 str0" d="M19058.85 8340.23l-156.1 -156.1c-47.63,-47.63 -121.71,-47.63 -169.33,0 -523.87,526.52 -314.84,317.5 -740.82,743.47 -2.65,2.65 -2.65,0 -5.29,10.58l-161.4 447.15c-2.65,10.58 0,21.17 5.29,26.46 7.94,7.94 18.52,10.58 26.46,5.29 455.08,-166.69 447.15,-158.75 457.73,-166.69 455.07,-455.08 481.53,-481.53 743.47,-743.47 44.98,-44.98 44.98,-119.06 0,-166.69l-0.01 0zm-1113.88 865.18l76.73 -211.67 227.54 227.54 -211.67 76.73c-18.52,-42.33 -50.27,-74.08 -92.6,-92.6zm103.19 -259.29l566.2 -566.2 105.83 105.83 -566.2 566.2 -105.83 -105.83zm-121.71 309.56c26.46,13.23 47.63,34.4 60.85,60.85l-95.25 34.4 34.4 -95.25zm370.41 -60.86l-105.83 -105.83 566.2 -566.2 105.83 105.83 -566.2 566.2zm724.95 -724.94l-121.71 121.71 -248.71 -248.71 121.71 -121.71c23.81,-23.81 68.79,-26.46 92.6,0l156.1 156.1c23.81,26.46 23.81,68.79 0,92.6l0.01 0.01z"/>
  </g>
 </g>
</svg>
