<svg id="Layer_1" height="512" viewBox="0 0 512 512" width="512" xmlns="http://www.w3.org/2000/svg"><path d="m511.217 197.172c-2.143-6.593-8.286-11.056-15.216-11.056-.01 0-.021 0-.031 0l-171.929.331-52.815-163.615c-2.132-6.607-8.283-11.085-15.226-11.085s-13.093 4.478-15.226 11.085l-52.815 163.615-171.928-.331c-.011 0-.021 0-.031 0-6.93 0-13.074 4.462-15.216 11.056-2.146 6.603.212 13.836 5.837 17.906l139.287 100.79-53.443 163.411c-2.158 6.599.186 13.837 5.803 17.918s13.224 4.073 18.833-.019l138.899-101.324 138.899 101.324c2.809 2.049 6.119 3.074 9.429 3.074 3.3 0 6.601-1.019 9.404-3.056 5.617-4.081 7.961-11.319 5.803-17.918l-53.443-163.412 139.287-100.79c5.625-4.068 7.983-11.301 5.838-17.904zm-173.34 99.614c-5.634 4.077-7.99 11.326-5.828 17.936l41.664 127.394-108.284-78.991c-2.809-2.049-6.119-3.074-9.429-3.074s-6.62 1.025-9.429 3.074l-108.284 78.991 41.664-127.394c2.162-6.61-.194-13.859-5.828-17.936l-108.587-78.575 134.033.258h.031c6.941 0 13.093-4.477 15.226-11.085l41.174-127.552 41.173 127.553c2.133 6.608 8.285 11.085 15.226 11.085h.031l134.034-.258z"/></svg>